<?xml version="1.0"?>
<!DOCTYPE svg PUBLIC "-//W3C//DTD SVG 1.1//EN" "http://www.w3.org/Graphics/SVG/1.1/DTD/svg11.dtd">
<svg version='1.1' width='488px' height='801px' xmlns='http://www.w3.org/2000/svg' xmlns:xlink='http://www.w3.org/1999/xlink'>
	<g transform="translate(63.8205,80)">
	<g transform="translate(118.4,0) scale(0.797684,1)">
			<path d="M 0 151.85 L 0 0 L 151.85 0 L 151.85 151.85 Z" fill="#00CCFF"/>
			<path d="M 0 151.85 L 0 0 L 151.85 0 L 151.85 151.85 Z" fill="none" stroke-width="8.2" stroke-linejoin="round" stroke-linecap="round" stroke="#151616"/>
	</g>
	<g transform="translate(118.4,486.65) scale(0.797684,1)">
			<path d="M 0 151.85 L 0 0 L 151.85 0 L 151.85 151.85 Z" fill="#00CCFF"/>
			<path d="M 0 151.85 L 0 0 L 151.85 0 L 151.85 151.85 Z" fill="none" stroke-width="8.2" stroke-linejoin="round" stroke-linecap="round" stroke="#151616"/>
	</g>
	<g transform="translate(119.45,244.1) scale(0.797684,1)">
			<path d="M 0 151.85 L 0 0 L 151.85 0 L 151.85 151.85 Z" fill="#00CCFF"/>
			<path d="M 0 151.85 L 0 0 L 151.85 0 L 151.85 151.85 Z" fill="none" stroke-width="8.2" stroke-linejoin="round" stroke-linecap="round" stroke="#151616"/>
	</g>
	<g transform="translate(299.45,244.1) scale(0.797684,1)">
			<path d="M 0 151.85 L 0 0 L 151.85 0 L 151.85 151.85 Z" fill="#00CCFF"/>
			<path d="M 0 151.85 L 0 0 L 151.85 0 L 151.85 151.85 Z" fill="none" stroke-width="8.2" stroke-linejoin="round" stroke-linecap="round" stroke="#151616"/>
	</g>
	<g transform="translate(-60.55,244.1) scale(0.797684,1)">
			<path d="M 0 151.85 L 0 0 L 151.85 0 L 151.85 151.85 Z" fill="#00CCFF"/>
			<path d="M 0 151.85 L 0 0 L 151.85 0 L 151.85 151.85 Z" fill="none" stroke-width="8.2" stroke-linejoin="round" stroke-linecap="round" stroke="#151616"/>
	</g>
	<g transform="translate(-60.55,-75.9) scale(0.797684,1)">
			<path d="M 0 151.85 L 0 0 L 151.85 0 L 151.85 151.85 Z" fill="#00CCFF"/>
			<path d="M 0 151.85 L 0 0 L 151.85 0 L 151.85 151.85 Z" fill="none" stroke-width="8.2" stroke-linejoin="round" stroke-linecap="round" stroke="#151616"/>
	</g>
	<g transform="translate(299.45,-75.9) scale(0.797684,1)">
			<path d="M 0 151.85 L 0 0 L 151.85 0 L 151.85 151.85 Z" fill="#00CCFF"/>
			<path d="M 0 151.85 L 0 0 L 151.85 0 L 151.85 151.85 Z" fill="none" stroke-width="8.2" stroke-linejoin="round" stroke-linecap="round" stroke="#151616"/>
	</g>
	<g transform="translate(-60.55,564.1) scale(0.797684,1)">
			<path d="M 0 151.85 L 0 0 L 151.85 0 L 151.85 151.85 Z" fill="#00CCFF"/>
			<path d="M 0 151.85 L 0 0 L 151.85 0 L 151.85 151.85 Z" fill="none" stroke-width="8.2" stroke-linejoin="round" stroke-linecap="round" stroke="#151616"/>
	</g>
	<g transform="translate(299.45,564.1) scale(0.797684,1)">
			<path d="M 0 151.85 L 0 0 L 151.85 0 L 151.85 151.85 Z" fill="#00CCFF"/>
			<path d="M 0 151.85 L 0 0 L 151.85 0 L 151.85 151.85 Z" fill="none" stroke-width="8.2" stroke-linejoin="round" stroke-linecap="round" stroke="#151616"/>
	</g>
	</g>
</svg>
